<svg width="260" preserveAspectRatio="xMinYMin slice" height="233" viewBox="0 0 260 233" fill="none" xmlns="http://www.w3.org/2000/svg">
<g id="Template" clip-path="url(#clip0)">
<rect width="260" height="233" fill="white"/>
<rect id="Rectangle 62" y="-1" width="260" height="235" fill="#F2FDFF"/>
<circle id="Ellipse 6" cx="22.6538" cy="8.07864" r="70.0234" transform="rotate(-120 22.6538 8.07864)" fill="url(#paint0_linear)"/>
<circle id="Ellipse 7" cx="70.2963" cy="208.662" r="44.0202" transform="rotate(-75 70.2963 208.662)" fill="url(#paint1_linear)"/>
<circle id="Ellipse 8" cx="163.835" cy="85.615" r="42.9599" transform="rotate(-105 163.835 85.615)" fill="url(#paint2_linear)"/>
<path id="Tech X" d="M130.625 93.3795H134V79.9295H139.3V76.8795H125.35V79.9295H130.625V93.3795ZM150.867 88.3295C151.017 87.7045 151.092 87.0795 151.092 86.4795C151.092 83.2545 148.692 80.7295 145.267 80.7295C141.692 80.6545 138.717 83.6295 138.792 87.2045C138.717 90.7795 141.742 93.7545 145.567 93.6795C147.392 93.6795 149.042 93.0545 150.517 91.8295L149.117 89.5295C148.042 90.3545 146.892 90.7795 145.667 90.7795C143.867 90.7795 142.592 89.9045 142.192 88.3295H150.867ZM142.192 85.9545C142.567 84.4295 143.717 83.4545 145.142 83.4545C146.617 83.4545 147.792 84.4295 147.817 85.9545H142.192ZM153.026 87.1795C152.976 90.7545 156.026 93.7545 159.651 93.6795C162.051 93.6795 163.951 92.5045 165.026 90.6045L162.676 88.8045C161.876 89.9295 160.976 90.5795 159.701 90.5795C157.801 90.5795 156.451 89.1545 156.451 87.1795C156.451 85.2545 157.801 83.8045 159.701 83.8045C161.001 83.8045 161.901 84.4795 162.676 85.6045L165.026 83.7795C163.951 81.8795 162.076 80.7295 159.651 80.7295C155.976 80.7295 153.026 83.5545 153.026 87.1795ZM178.895 85.7045C178.895 82.7045 177.095 80.7295 174.295 80.7295C172.92 80.7295 171.72 81.2295 170.895 82.0545V74.6295H167.52V93.3795H170.895V86.1795C170.895 84.7545 171.87 83.7795 173.245 83.7795C174.62 83.7795 175.545 84.7545 175.545 86.1795V93.3795H178.895V85.7045ZM202.476 93.3795L197.051 84.9795L202.126 76.8795H198.301L195.151 82.0795L191.976 76.8795H188.126L193.276 84.9795L187.801 93.3795H191.651L195.151 87.9045L198.651 93.3795H202.476Z" fill="url(#paint3_linear)"/>
<path id="Neuro" d="M64.575 76.8795V86.7295L55 76.5795H53.9V93.3795H57.275V83.4795L66.825 93.6795H67.95V76.8795H64.575ZM82.7502 88.3295C82.9002 87.7045 82.9752 87.0795 82.9752 86.4795C82.9752 83.2545 80.5752 80.7295 77.1502 80.7295C73.5752 80.6545 70.6002 83.6295 70.6752 87.2045C70.6002 90.7795 73.6252 93.7545 77.4502 93.6795C79.2752 93.6795 80.9252 93.0545 82.4002 91.8295L81.0002 89.5295C79.9252 90.3545 78.7752 90.7795 77.5502 90.7795C75.7502 90.7795 74.4752 89.9045 74.0752 88.3295H82.7502ZM74.0752 85.9545C74.4502 84.4295 75.6002 83.4545 77.0252 83.4545C78.5002 83.4545 79.6752 84.4295 79.7002 85.9545H74.0752ZM85.4836 87.9295C85.4836 91.3795 87.9086 93.6795 91.2086 93.6795C94.4336 93.6795 96.8836 91.3795 96.8836 87.9295V81.0045H93.5086V88.2045C93.5086 89.6295 92.5086 90.5795 91.2086 90.5795C89.8336 90.5795 88.8586 89.6295 88.8586 88.2045V81.0045H85.4836V87.9295ZM107.711 81.0045C107.386 80.9045 107.036 80.8545 106.611 80.8545C105.236 80.8545 104.036 81.4545 103.211 82.4795V81.0045H100.111V93.3795H103.486V87.2045C103.486 85.0795 104.786 83.9795 106.811 83.9795H107.711V81.0045ZM108.859 87.1795C108.784 90.7045 111.834 93.7295 115.459 93.6545C119.084 93.7295 122.209 90.7045 122.134 87.1795C122.209 83.6545 119.109 80.6795 115.484 80.7295C111.859 80.6545 108.784 83.6545 108.859 87.1795ZM118.684 87.2045C118.684 89.1295 117.309 90.5545 115.484 90.5545C113.609 90.5545 112.284 89.1295 112.284 87.2045C112.284 85.2295 113.609 83.8045 115.484 83.8045C117.309 83.8045 118.684 85.2795 118.684 87.2045Z" fill="#23B2C6"/>
</g>
<defs>
<linearGradient id="paint0_linear" x1="22.6538" y1="-61.9448" x2="22.6538" y2="78.1021" gradientUnits="userSpaceOnUse">
<stop stop-color="#23B2C6"/>
<stop offset="1" stop-color="white"/>
</linearGradient>
<linearGradient id="paint1_linear" x1="70.2963" y1="164.641" x2="70.2963" y2="252.682" gradientUnits="userSpaceOnUse">
<stop stop-color="#23B2C6"/>
<stop offset="1" stop-color="white"/>
</linearGradient>
<linearGradient id="paint2_linear" x1="163.835" y1="42.6551" x2="163.835" y2="128.575" gradientUnits="userSpaceOnUse">
<stop stop-color="#23B2C6"/>
<stop offset="1" stop-color="#B0E7EF"/>
</linearGradient>
<linearGradient id="paint3_linear" x1="164.5" y1="70.3795" x2="164.5" y2="101.38" gradientUnits="userSpaceOnUse">
<stop offset="0.588542" stop-color="white"/>
<stop offset="1" stop-color="#77D0DC"/>
</linearGradient>
<clipPath id="clip0">
<rect width="260" height="233" fill="white"/>
</clipPath>
</defs>
</svg>
