<svg width="278" height="297" viewBox="0 0 278 297" fill="none" xmlns="http://www.w3.org/2000/svg">
<mask id="mask0" mask-type="alpha" maskUnits="userSpaceOnUse" x="0" y="0" width="278" height="297">
<path d="M11.2062 261.555C-0.286708 259.001 -1.82986 251.978 1.62867 245.593L71.8634 124.278L138.906 10.9447C145.929 -3.10229 164.18 -1.02718 172.427 2.96343C168.596 8.70991 173.225 11.0827 175.619 12.1469L233.084 24.5127C241.384 27.7052 249.579 21.8523 252.239 18.1278L270.596 22.9165C277.619 24.832 277.513 31.6958 276.981 34.0902C235.212 116.563 152.633 278.794 146.887 287.095C141.141 295.395 127.998 296.938 122.943 295.874L11.2062 261.555Z" fill="#C4C4C4"/>
</mask>
<g mask="url(#mask0)">
<rect x="-61.4229" y="-3.42154" width="399.061" height="370.329" rx="13" fill="url(#paint0_radial)"/>
</g>
<defs>
<radialGradient id="paint0_radial" cx="0" cy="0" r="1" gradientUnits="userSpaceOnUse" gradientTransform="translate(138.108 181.743) rotate(90) scale(185.164 199.531)">
<stop stop-color="#FF9F11"/>
<stop offset="1" stop-color="#F7CE7E"/>
</radialGradient>
</defs>
</svg>
