<svg width="260" height="233" viewBox="0 0 260 233" fill="none" xmlns="http://www.w3.org/2000/svg">
<g id="Template" clip-path="url(#clip0)">
<rect width="260" height="233" fill="white"/>
<rect id="Rectangle 62" y="-1" width="260" height="235" fill="#F2FDFF"/>
<circle id="Ellipse 6" cx="22.6538" cy="8.07864" r="70.0234" transform="rotate(-120 22.6538 8.07864)" fill="url(#paint0_linear)"/>
<circle id="Ellipse 7" cx="70.2963" cy="208.662" r="44.0202" transform="rotate(-75 70.2963 208.662)" fill="url(#paint1_linear)"/>
<circle id="Ellipse 8" cx="163.835" cy="116.236" r="42.9599" transform="rotate(-105 163.835 116.236)" fill="url(#paint2_linear)"/>
<path id="Tech X" d="M130.625 124H134V110.55H139.3V107.5H125.35V110.55H130.625V124ZM150.867 118.95C151.017 118.325 151.092 117.7 151.092 117.1C151.092 113.875 148.692 111.35 145.267 111.35C141.692 111.275 138.717 114.25 138.792 117.825C138.717 121.4 141.742 124.375 145.567 124.3C147.392 124.3 149.042 123.675 150.517 122.45L149.117 120.15C148.042 120.975 146.892 121.4 145.667 121.4C143.867 121.4 142.592 120.525 142.192 118.95H150.867ZM142.192 116.575C142.567 115.05 143.717 114.075 145.142 114.075C146.617 114.075 147.792 115.05 147.817 116.575H142.192ZM153.026 117.8C152.976 121.375 156.026 124.375 159.651 124.3C162.051 124.3 163.951 123.125 165.026 121.225L162.676 119.425C161.876 120.55 160.976 121.2 159.701 121.2C157.801 121.2 156.451 119.775 156.451 117.8C156.451 115.875 157.801 114.425 159.701 114.425C161.001 114.425 161.901 115.1 162.676 116.225L165.026 114.4C163.951 112.5 162.076 111.35 159.651 111.35C155.976 111.35 153.026 114.175 153.026 117.8ZM178.895 116.325C178.895 113.325 177.095 111.35 174.295 111.35C172.92 111.35 171.72 111.85 170.895 112.675V105.25H167.52V124H170.895V116.8C170.895 115.375 171.87 114.4 173.245 114.4C174.62 114.4 175.545 115.375 175.545 116.8V124H178.895V116.325ZM202.476 124L197.051 115.6L202.126 107.5H198.301L195.151 112.7L191.976 107.5H188.126L193.276 115.6L187.801 124H191.651L195.151 118.525L198.651 124H202.476Z" fill="url(#paint3_linear)"/>
<path id="Neuro" d="M64.575 107.5V117.35L55 107.2H53.9V124H57.275V114.1L66.825 124.3H67.95V107.5H64.575ZM82.7502 118.95C82.9002 118.325 82.9752 117.7 82.9752 117.1C82.9752 113.875 80.5752 111.35 77.1502 111.35C73.5752 111.275 70.6002 114.25 70.6752 117.825C70.6002 121.4 73.6252 124.375 77.4502 124.3C79.2752 124.3 80.9252 123.675 82.4002 122.45L81.0002 120.15C79.9252 120.975 78.7752 121.4 77.5502 121.4C75.7502 121.4 74.4752 120.525 74.0752 118.95H82.7502ZM74.0752 116.575C74.4502 115.05 75.6002 114.075 77.0252 114.075C78.5002 114.075 79.6752 115.05 79.7002 116.575H74.0752ZM85.4836 118.55C85.4836 122 87.9086 124.3 91.2086 124.3C94.4336 124.3 96.8836 122 96.8836 118.55V111.625H93.5086V118.825C93.5086 120.25 92.5086 121.2 91.2086 121.2C89.8336 121.2 88.8586 120.25 88.8586 118.825V111.625H85.4836V118.55ZM107.711 111.625C107.386 111.525 107.036 111.475 106.611 111.475C105.236 111.475 104.036 112.075 103.211 113.1V111.625H100.111V124H103.486V117.825C103.486 115.7 104.786 114.6 106.811 114.6H107.711V111.625ZM108.859 117.8C108.784 121.325 111.834 124.35 115.459 124.275C119.084 124.35 122.209 121.325 122.134 117.8C122.209 114.275 119.109 111.3 115.484 111.35C111.859 111.275 108.784 114.275 108.859 117.8ZM118.684 117.825C118.684 119.75 117.309 121.175 115.484 121.175C113.609 121.175 112.284 119.75 112.284 117.825C112.284 115.85 113.609 114.425 115.484 114.425C117.309 114.425 118.684 115.9 118.684 117.825Z" fill="#23B2C6"/>
</g>
<defs>
<linearGradient id="paint0_linear" x1="22.6538" y1="-61.9448" x2="22.6538" y2="78.1021" gradientUnits="userSpaceOnUse">
<stop stop-color="#23B2C6"/>
<stop offset="1" stop-color="white"/>
</linearGradient>
<linearGradient id="paint1_linear" x1="70.2963" y1="164.641" x2="70.2963" y2="252.682" gradientUnits="userSpaceOnUse">
<stop stop-color="#23B2C6"/>
<stop offset="1" stop-color="white"/>
</linearGradient>
<linearGradient id="paint2_linear" x1="163.835" y1="73.2756" x2="163.835" y2="159.195" gradientUnits="userSpaceOnUse">
<stop stop-color="#23B2C6"/>
<stop offset="1" stop-color="#B0E7EF"/>
</linearGradient>
<linearGradient id="paint3_linear" x1="164.5" y1="101" x2="164.5" y2="132" gradientUnits="userSpaceOnUse">
<stop offset="0.588542" stop-color="white"/>
<stop offset="1" stop-color="#77D0DC"/>
</linearGradient>
<clipPath id="clip0">
<rect width="260" height="233" fill="white"/>
</clipPath>
</defs>
</svg>
