<svg width="3840" height="4018" viewBox="0 0 3840 4018" fill="none" xmlns="http://www.w3.org/2000/svg">
<rect x="232" y="4017" width="16" height="1" fill="white"/>
<rect x="3824" y="3625" width="16" height="1" fill="white"/>
<rect width="3" height="11" fill="white"/>
<path d="M565.724 804.782C584.418 756.37 602.289 640.508 529.081 555.411C526.946 553.13 524.918 550.87 523 548.641C525.093 550.874 527.12 553.131 529.081 555.411C586.729 617.004 721.823 693.112 849 548.641C812.004 597.028 760.209 716 849 804.782C805.812 823.939 688.693 850.759 565.724 804.782Z" fill="#E5B397"/>
<path d="M2754.5 3526.48L1007.5 3649.9H955.5V3601.33L1765.5 3536.89L1851 3500.71L556 3578.03L595 3536.89L1895 3431.32C1921.8 3419.03 1944.17 3390.18 1952 3377.29C2564.4 3309.49 2930.5 3349.04 3037 3377.29C3281.8 3309.49 3568.33 3337.15 3681 3359.45C3706.2 3394.74 3409.5 3442.56 3258 3462.05C3291.2 3462.05 3299.5 3493.11 3299.5 3508.64L2310.5 3649.9C1905.7 3649.9 2018.83 3617.52 2126 3601.33C2190.4 3587.05 2294.83 3595.38 2339 3601.33C2374.2 3601.33 2630.67 3551.43 2754.5 3526.48Z" fill="#EFEFEF"/>
<path d="M874 434.791C859.197 560.101 836.304 643.909 695.916 656.885C580.183 667.583 512 568.985 512 434.791C512 300.597 527.97 225.411 636.255 216.771C802.228 203.528 874 300.597 874 434.791Z" fill="#DBA98D"/>
<path d="M885 418.449C868.52 542.916 843.035 626.161 686.746 639.05C557.906 649.675 482 551.74 482 418.449C482 285.158 499.779 210.478 620.328 201.896C805.099 188.742 885 285.158 885 418.449Z" fill="#E8B69A"/>
<path d="M440 3484.85C441.2 3481.28 449.5 3483.36 453.5 3484.85L615.5 3496.75C623.5 3503.49 618.833 3596.37 615.5 3641.97C340.7 3719.69 256.333 3697.81 248.5 3677.16C241.7 3664.47 245.666 3640.81 248.5 3630.57C240.5 3588.44 438.5 3489.31 440 3484.85Z" fill="#D4806D"/>
<path d="M452 3484.52V3346.07L618 3357.07L609.976 3484.52C636.456 3576.13 535.752 3544.26 482.091 3516.87C479.683 3500.82 461.027 3488.62 452 3484.52Z" fill="#EDBB9F"/>
<path d="M982 3595.09V3435.29L813 3447.98L821.169 3595.09C794.211 3700.83 896.734 3664.04 951.366 3632.43C953.816 3613.91 972.81 3599.82 982 3595.09Z" fill="#EDBB9F"/>
<path d="M431 3377.29L387 1834.34L916 1869.53L1000 3443.21C964.8 3467.8 844 3453.46 788 3443.21L695.5 2559.97L647 3377.29C608.2 3398.31 486.833 3386.05 431 3377.29Z" fill="#9B867A"/>
<path d="M706.898 1857.72C704.392 1833.96 720.118 1812.09 743.447 1806.91L1124.58 1722.24C1151.8 1716.19 1178.27 1735.05 1181.46 1762.75L1226.71 2156.05C1229.44 2179.76 1213.96 2201.75 1190.72 2207.19L806.356 2297.05C778.824 2303.49 751.881 2284.33 748.916 2256.21L706.898 1857.72Z" fill="#383838"/>
<path d="M354.5 1806.84V1547.69C351.194 1549.84 347.472 1551.43 343.448 1552.34L232.576 1577.23C214.49 1581.29 196.484 1570.11 192.095 1552.1L158.561 1414.48C155.467 1401.79 159.923 1388.44 170.024 1380.15L191.853 1362.24C197.16 1357.88 201.024 1352.02 202.937 1345.43L326.795 918.511C329.472 909.283 335.93 901.618 344.571 897.413L536.2 804.159C545.548 799.61 556.384 799.676 566.04 803.526C623.584 826.47 738.148 850.315 846.118 804.909C857.05 800.312 869.619 800.822 879.646 807.155L1024.89 898.894C1030.19 902.244 1034.47 906.996 1037.24 912.624L1111.57 1063.63C1113.18 1066.9 1114.25 1070.41 1114.75 1074.03L1178.84 1541.58C1179.28 1544.76 1179.26 1547.99 1178.79 1551.16L1118.29 1960.95C1115.82 1977.62 1101.51 1989.98 1084.65 1989.98H974.747C959.052 1989.98 945.398 1979.24 941.702 1963.98L924.81 1894.26C920.67 1877.17 904.255 1866.08 886.807 1868.26C746.505 1885.8 493.057 1898.1 370.545 1834.66C360.262 1829.34 354.5 1818.42 354.5 1806.84Z" fill="#91BED1"/>
<path d="M703.475 1846.46C702.58 1827.73 712.902 1810.26 729.738 1802.01L852.682 1741.76C882.957 1726.92 918.545 1747.85 920.301 1781.51L940.419 2167.26C941.382 2185.71 931.446 2203.01 915.027 2211.48L790.59 2275.66C760.178 2291.34 723.734 2270.31 722.1 2236.13L703.475 1846.46Z" fill="#383838"/>
<path d="M947.5 2068.29L958 1986.02H1097L1059 2265.56C1033.8 2329.4 940.833 2340.4 897.5 2337.92C822.3 2337.92 831.167 2310.17 845 2296.29C867.4 2308.19 905.334 2276.46 921.5 2259.12V2207.07L897.5 2235.82C857.5 2258.82 860.167 2215.33 866.5 2190.72L947.5 2068.29Z" fill="#F7C5A9"/>
<path d="M506.974 216.669C500.648 194.841 491.791 147.988 506.974 135.201C596.045 64.2178 794.865 -27.0122 877.576 175.935C879.407 185.904 879.274 208.007 864.09 216.669C848.907 225.33 861.759 224.403 870.084 222.856C881.738 267.027 899.552 360.318 877.576 380.118C870.583 325.635 823.034 216.669 688.779 216.669C611.847 216.669 604.715 218.023 623.174 219.568C647.725 217.228 671.039 219.183 688.779 222.856C664.894 221.976 636.929 220.719 623.174 219.568C566.68 224.953 503.639 253.087 486.901 335.392L484.744 348.15C485.343 343.759 486.064 339.508 486.901 335.392L506.974 216.669Z" fill="#D67A5B"/>
<path d="M984.498 3587.95C960.898 3570.1 860.332 3580.51 812.998 3587.95C804.198 3589.26 809.498 3784.22 809.498 3784.22C809.498 3784.22 809.5 3786.39 812.998 3787.69C864.996 3807.03 979.998 3794.13 994.998 3768.36C1007 3747.74 992.998 3639.49 984.498 3587.95Z" fill="#D4806D"/>
<path d="M75.4999 1402.14C71.4999 1335.53 107.833 1362.82 126.5 1384.79C141.833 1499.45 157.1 1720.84 95.5 1689.12C33.9 1657.4 25.4998 1560.92 28.9996 1516.64C-4.20037 1512.67 1.49963 1490.53 8.49963 1479.96C9.69963 1470.44 53.6665 1447.25 75.4999 1436.84V1402.14Z" fill="#F4C2A6"/>
<path d="M251.5 1692.59C187.5 1717.97 118.5 1703.17 92 1692.59L70 1453.69C109.6 1469.55 220.833 1460.3 271.5 1453.69L251.5 1692.59Z" fill="#FF740F"/>
<path d="M282.001 1444.27C282.001 1462.07 233.156 1464.6 165.501 1464.6C97.8463 1464.6 60.5012 1462.13 60.5012 1444.34C60.5012 1426.54 52.0009 1377.3 181.501 1381.82C288.001 1373.83 282.001 1426.48 282.001 1444.27Z" fill="#F3F3F3"/>
<path d="M763.5 827.5C685.743 829.179 623.092 823.122 602.5 817C366.593 913.133 397.471 1551.61 435.636 1860.34C487.034 1878.81 612.457 1884.48 668.743 1885C521.795 1202.41 666.853 894.667 763.5 827.5Z" fill="#ECECEC"/>
</svg>
