<svg width="260" height="233" viewBox="0 0 260 233" fill="none" xmlns="http://www.w3.org/2000/svg">
<rect width="260" height="233" fill="#FDFBFF"/>
<g filter="url(#filtercv0_d)">
<circle cx="69.7361" cy="107.736" r="19.7361" transform="rotate(90 69.7361 107.736)" fill="url(#paintcv0_linear)"/>
</g>
<path d="M75.606 101.356H63.8664C63.584 101.356 63.356 101.584 63.356 101.866V113.606C63.356 113.888 63.584 114.116 63.8664 114.116H75.606C75.8883 114.116 76.1164 113.888 76.1164 113.606V101.866C76.1164 101.584 75.8883 101.356 75.606 101.356ZM74.9679 112.968H64.5044V102.504H74.9679V112.968Z" fill="#FDFBFF"/>
<path d="M64.5044 112.968H74.9679V102.504H64.5044V112.968ZM69.9196 109.411H72.8704C72.9358 109.411 72.9901 109.468 72.9901 109.539V110.304C72.9901 110.374 72.9358 110.432 72.8704 110.432H69.9196C69.8542 110.432 69.8 110.374 69.8 110.304V109.539C69.8 109.468 69.8542 109.411 69.9196 109.411ZM66.4823 109.304C66.4823 109.267 66.4998 109.231 66.5285 109.207L68.2799 107.736L66.5285 106.266C66.5139 106.254 66.5021 106.239 66.494 106.222C66.486 106.205 66.482 106.187 66.4823 106.168V105.168C66.4823 105.06 66.6083 105.001 66.6912 105.071L69.7537 107.637C69.8159 107.688 69.8159 107.782 69.7537 107.833L66.6912 110.401C66.6083 110.472 66.4823 110.413 66.4823 110.304V109.304V109.304Z" fill="black" fill-opacity="0.1"/>
<path d="M66.6909 110.402L69.7534 107.833C69.8156 107.782 69.8156 107.688 69.7534 107.637L66.6909 105.071C66.6724 105.055 66.6498 105.045 66.6257 105.042C66.6017 105.039 66.5772 105.042 66.5552 105.053C66.5332 105.063 66.5146 105.079 66.5016 105.1C66.4886 105.12 66.4818 105.144 66.4819 105.168V106.168C66.4819 106.207 66.4979 106.242 66.5282 106.266L68.2796 107.736L66.5282 109.207C66.5139 109.219 66.5024 109.234 66.4944 109.25C66.4865 109.267 66.4822 109.286 66.4819 109.304V110.304C66.4819 110.413 66.6079 110.472 66.6909 110.402ZM69.7996 110.304C69.7996 110.374 69.8539 110.432 69.9193 110.432H72.8701C72.9355 110.432 72.9897 110.374 72.9897 110.304V109.539C72.9897 109.468 72.9355 109.411 72.8701 109.411H69.9193C69.8539 109.411 69.7996 109.468 69.7996 109.539V110.304Z" fill="#FDFBFF"/>
<g filter="url(#filtercv1_d)">
<circle cx="130.208" cy="107.736" r="19.7361" transform="rotate(-90 130.208 107.736)" fill="url(#paintcv1_linear)"/>
</g>
<path d="M128.565 107.526H131.51C131.51 107.526 133.165 107.553 133.165 105.927V103.238C133.165 103.238 133.417 101.611 130.165 101.611C127.052 101.611 127.246 102.961 127.246 102.961L127.25 104.359H130.219V104.779H126.071C126.071 104.779 124.079 104.553 124.079 107.693C124.079 110.833 125.817 110.722 125.817 110.722H126.855V109.265C126.855 109.265 126.798 107.526 128.565 107.526ZM128.527 103.62C128.385 103.62 128.249 103.564 128.149 103.464C128.049 103.363 127.992 103.228 127.992 103.086C127.992 102.944 128.049 102.808 128.149 102.708C128.249 102.608 128.385 102.552 128.527 102.552C128.668 102.552 128.804 102.608 128.904 102.708C129.005 102.808 129.061 102.944 129.061 103.086C129.061 103.228 129.005 103.363 128.904 103.464C128.804 103.564 128.668 103.62 128.527 103.62Z" fill="#FDFBFF"/>
<path d="M134.599 104.695H133.562V106.152C133.562 106.152 133.618 107.891 131.852 107.891H128.906C128.906 107.891 127.251 107.863 127.251 109.49V112.179C127.251 112.179 127 113.806 130.252 113.806C133.364 113.806 133.17 112.456 133.17 112.456L133.166 111.059H130.197V110.639H134.346C134.346 110.639 136.338 110.865 136.338 107.724C136.338 104.584 134.599 104.695 134.599 104.695V104.695ZM131.89 111.798C132.031 111.798 132.167 111.854 132.268 111.954C132.368 112.054 132.424 112.19 132.424 112.332C132.424 112.474 132.368 112.609 132.268 112.71C132.167 112.81 132.031 112.866 131.89 112.866C131.748 112.866 131.612 112.81 131.512 112.71C131.412 112.609 131.356 112.474 131.356 112.332C131.356 112.19 131.412 112.054 131.512 111.954C131.612 111.854 131.748 111.798 131.89 111.798V111.798Z" fill="#FDFBFF"/>
<g filter="url(#filtercv2_d)">
<circle cx="190.68" cy="107.736" r="19.7361" transform="rotate(-90 190.68 107.736)" fill="url(#paintcv2_linear)"/>
</g>
<g clip-path="url(#clip0)">
<path d="M187.256 100.794C188.634 98.1973 192.327 98.061 193.887 100.55C195.095 102.478 194.327 104.872 192.552 105.902L191.4 103.906C192.106 103.496 192.412 102.544 191.931 101.777C191.31 100.787 189.841 100.841 189.293 101.874C188.887 102.639 189.209 103.519 189.877 103.907L188.724 105.905C187.044 104.928 186.236 102.716 187.256 100.794V100.794ZM187.872 110.154C187.871 110.929 187.268 111.65 186.402 111.682C185.233 111.726 184.453 110.481 185.001 109.448C185.425 108.649 186.399 108.436 187.106 108.838L188.262 106.837C186.484 105.823 184.031 106.358 182.964 108.368C181.585 110.965 183.546 114.093 186.484 113.984C188.658 113.904 190.171 112.097 190.18 110.154H187.872H187.872ZM196.924 106.846L195.772 108.842C196.48 109.251 196.787 110.205 196.306 110.973C195.685 111.963 194.216 111.909 193.668 110.876C193.261 110.11 193.585 109.228 194.255 108.841L193.102 106.843C191.42 107.819 190.61 110.033 191.63 111.956C193.009 114.553 196.702 114.689 198.261 112.2C199.471 110.271 198.701 107.875 196.924 106.846V106.846Z" fill="#FDFBFF"/>
</g>
<path d="M114.336 190.288C117.864 190.288 119.88 188.344 121.032 186.352L118.104 184.936C117.432 186.256 115.992 187.264 114.336 187.264C111.432 187.264 109.32 185.032 109.32 182.008C109.32 178.984 111.432 176.752 114.336 176.752C115.992 176.752 117.432 177.784 118.104 179.08L121.032 177.64C119.904 175.648 117.864 173.728 114.336 173.728C109.536 173.728 105.816 177.088 105.816 182.008C105.816 186.928 109.536 190.288 114.336 190.288ZM130.645 190.288C135.493 190.288 139.021 186.832 139.021 182.008C139.021 177.184 135.493 173.728 130.645 173.728C125.821 173.728 122.293 177.184 122.293 182.008C122.293 186.832 125.821 190.288 130.645 190.288ZM130.645 187.264C127.693 187.264 125.797 184.984 125.797 182.008C125.797 179.008 127.693 176.752 130.645 176.752C133.597 176.752 135.517 179.008 135.517 182.008C135.517 184.984 133.597 187.264 130.645 187.264ZM158.764 190V173.992H153.964L150.076 183.664L146.188 173.992H141.412V190H144.82V178.792L149.332 190H150.82L155.332 178.792V190H158.764ZM165.351 190V184.312H169.431C172.887 184.312 174.807 181.936 174.807 179.152C174.807 176.344 172.911 173.992 169.431 173.992H161.943V190H165.351ZM168.975 181.312H165.351V176.992H168.975C170.319 176.992 171.327 177.808 171.327 179.152C171.327 180.472 170.319 181.312 168.975 181.312ZM184.144 190.288C189.016 190.288 191.368 187.576 191.368 183.592V173.992H187.888V183.496C187.888 185.728 186.616 187.264 184.144 187.264C181.672 187.264 180.376 185.728 180.376 183.496V173.992H176.92V183.616C176.92 187.552 179.272 190.288 184.144 190.288ZM201.65 190V176.992H206.306V173.992H193.538V176.992H198.218V190H201.65ZM219.818 190V187H211.898V183.376H219.65V180.376H211.898V176.992H219.818V173.992H208.49V190H219.818ZM235.442 190L231.842 183.904C233.57 183.496 235.346 181.984 235.346 179.152C235.346 176.176 233.306 173.992 229.97 173.992H222.482V190H225.89V184.312H228.386L231.53 190H235.442ZM229.466 181.312H225.89V176.992H229.466C230.834 176.992 231.866 177.808 231.866 179.152C231.866 180.496 230.834 181.312 229.466 181.312Z" fill="#202020" fill-opacity="0.19"/>
<path d="M169.88 196.16L165.944 205.76L161.984 196.16H158.312L165.392 212.288H166.472L173.528 196.16H169.88ZM175.691 212H178.931V196.16H175.691V212ZM181.454 208.784C182.678 210.92 184.886 212.288 187.574 212.288C190.742 212.288 193.118 210.44 193.118 207.536C193.118 205.4 191.87 204.08 189.206 202.904L187.406 202.112C186.062 201.512 185.558 201.128 185.558 200.288C185.558 199.304 186.398 198.752 187.526 198.752C188.726 198.752 189.734 199.352 190.55 200.576L192.758 198.872C191.774 197.048 189.95 195.872 187.526 195.872C184.526 195.872 182.27 197.648 182.27 200.36C182.27 202.472 183.686 203.84 186.11 204.92L187.814 205.688C189.326 206.384 189.83 206.72 189.83 207.656C189.83 208.736 188.99 209.408 187.574 209.408C185.846 209.408 184.718 208.52 183.686 207.104L181.454 208.784ZM195.965 212H199.205V196.16H195.965V212ZM201.92 204.08C201.848 208.616 205.76 212.384 210.32 212.288C214.88 212.384 218.84 208.616 218.768 204.08C218.84 199.544 214.88 195.776 210.32 195.872C205.76 195.776 201.848 199.544 201.92 204.08ZM215.432 204.08C215.432 207.128 213.248 209.288 210.344 209.288C207.416 209.288 205.256 207.128 205.256 204.08C205.256 201.032 207.416 198.872 210.344 198.872C213.248 198.872 215.432 201.08 215.432 204.08ZM231.76 196.16V205.616L222.568 195.872H221.512V212H224.752V202.496L233.92 212.288H235V196.16H231.76Z" fill="black" fill-opacity="0.39"/>
<defs>
<filter id="filtercv0_d" x="38" y="75" width="63.4722" height="63.4722" filterUnits="userSpaceOnUse" color-interpolation-filters="sRGB">
<feFlood flood-opacity="0" result="BackgroundImageFix"/>
<feColorMatrix in="SourceAlpha" type="matrix" values="0 0 0 0 0 0 0 0 0 0 0 0 0 0 0 0 0 0 127 0"/>
<feMorphology radius="3" operator="erode" in="SourceAlpha" result="effect1_dropShadow"/>
<feOffset dy="-1"/>
<feGaussianBlur stdDeviation="7.5"/>
<feColorMatrix type="matrix" values="0 0 0 0 0 0 0 0 0 0 0 0 0 0 0 0 0 0 0.12 0"/>
<feBlend mode="normal" in2="BackgroundImageFix" result="effect1_dropShadow"/>
<feBlend mode="normal" in="SourceGraphic" in2="effect1_dropShadow" result="shape"/>
</filter>
<filter id="filtercv1_d" x="98.4722" y="75" width="63.4722" height="63.4722" filterUnits="userSpaceOnUse" color-interpolation-filters="sRGB">
<feFlood flood-opacity="0" result="BackgroundImageFix"/>
<feColorMatrix in="SourceAlpha" type="matrix" values="0 0 0 0 0 0 0 0 0 0 0 0 0 0 0 0 0 0 127 0"/>
<feMorphology radius="3" operator="erode" in="SourceAlpha" result="effect1_dropShadow"/>
<feOffset dy="-1"/>
<feGaussianBlur stdDeviation="7.5"/>
<feColorMatrix type="matrix" values="0 0 0 0 0 0 0 0 0 0 0 0 0 0 0 0 0 0 0.12 0"/>
<feBlend mode="normal" in2="BackgroundImageFix" result="effect1_dropShadow"/>
<feBlend mode="normal" in="SourceGraphic" in2="effect1_dropShadow" result="shape"/>
</filter>
<filter id="filtercv2_d" x="158.944" y="75" width="63.4722" height="63.4722" filterUnits="userSpaceOnUse" color-interpolation-filters="sRGB">
<feFlood flood-opacity="0" result="BackgroundImageFix"/>
<feColorMatrix in="SourceAlpha" type="matrix" values="0 0 0 0 0 0 0 0 0 0 0 0 0 0 0 0 0 0 127 0"/>
<feMorphology radius="3" operator="erode" in="SourceAlpha" result="effect1_dropShadow"/>
<feOffset dy="-1"/>
<feGaussianBlur stdDeviation="7.5"/>
<feColorMatrix type="matrix" values="0 0 0 0 0 0 0 0 0 0 0 0 0 0 0 0 0 0 0.12 0"/>
<feBlend mode="normal" in2="BackgroundImageFix" result="effect1_dropShadow"/>
<feBlend mode="normal" in="SourceGraphic" in2="effect1_dropShadow" result="shape"/>
</filter>
<linearGradient id="paintcv0_linear" x1="69.7361" y1="88" x2="69.7361" y2="127.472" gradientUnits="userSpaceOnUse">
<stop stop-color="#E0C3FC"/>
<stop offset="1" stop-color="#FFE1F3"/>
</linearGradient>
<linearGradient id="paintcv1_linear" x1="130.208" y1="87.9999" x2="130.208" y2="127.472" gradientUnits="userSpaceOnUse">
<stop stop-color="#E0C3FC"/>
<stop offset="1" stop-color="#8EC5FC"/>
</linearGradient>
<linearGradient id="paintcv2_linear" x1="190.68" y1="88" x2="190.68" y2="127.472" gradientUnits="userSpaceOnUse">
<stop stop-color="#8EC5FC"/>
<stop offset="1" stop-color="#D2E4FF"/>
</linearGradient>
<clipPath id="clip0">
<rect width="16.3333" height="16.3333" fill="white" transform="translate(182.514 98.2084)"/>
</clipPath>
</defs>
</svg>
