<svg width="44" height="44" viewBox="0 0 44 44" fill="none" xmlns="http://www.w3.org/2000/svg">
<path d="M13.7048 30.5745L15.9466 27.7731L8.72964 21.9999L15.9466 16.2267L13.7048 13.4253L4.73736 20.5992C4.52725 20.7672 4.35762 20.9804 4.24106 21.2228C4.12449 21.4653 4.06396 21.7309 4.06396 21.9999C4.06396 22.2689 4.12449 22.5345 4.24106 22.777C4.35762 23.0195 4.52725 23.2326 4.73736 23.4006L13.7048 30.5745ZM30.2944 13.4253L28.0526 16.2267L35.2695 21.9999L28.0526 27.7731L30.2944 30.5745L39.2618 23.4006C39.4719 23.2326 39.6416 23.0195 39.7581 22.777C39.8747 22.5345 39.9352 22.2689 39.9352 21.9999C39.9352 21.7309 39.8747 21.4653 39.7581 21.2228C39.6416 20.9804 39.4719 20.7672 39.2618 20.5992L30.2944 13.4253Z" fill="#2E7CF6"/>
<path d="M27.3372 6.24614L20.1633 38.5288L16.6606 37.7504L23.8346 5.46777L27.3372 6.24614Z" fill="#2E7CF6"/>
</svg>
